<mxfile host="app.diagrams.net" modified="2022-01-12T14:28:27.102Z" agent="5.0 (Windows NT 10.0; Win64; x64) AppleWebKit/537.36 (KHTML, like Gecko) Chrome/97.0.4692.71 Safari/537.36" etag="NA3TPW6JHNIY_kNPLq1r" version="16.2.4" type="github" pages="2">
  <diagram id="53_PDz1Em95K9E2wH_YV" name="Page-1">
    <mxGraphModel dx="1221" dy="634" grid="1" gridSize="10" guides="1" tooltips="1" connect="1" arrows="1" fold="1" page="1" pageScale="1" pageWidth="850" pageHeight="1100" math="0" shadow="0">
      <root>
        <mxCell id="0" />
        <mxCell id="1" parent="0" />
        <mxCell id="a6Y1GMjYXgnfRrDLQO_0-1" value="ElectricityBillFactory" style="swimlane;fontStyle=1;align=center;verticalAlign=top;childLayout=stackLayout;horizontal=1;startSize=26;horizontalStack=0;resizeParent=1;resizeParentMax=0;resizeLast=0;collapsible=1;marginBottom=0;" vertex="1" parent="1">
          <mxGeometry x="120" y="120" width="190" height="60" as="geometry" />
        </mxCell>
        <mxCell id="a6Y1GMjYXgnfRrDLQO_0-3" value="" style="line;strokeWidth=1;fillColor=none;align=left;verticalAlign=middle;spacingTop=-1;spacingLeft=3;spacingRight=3;rotatable=0;labelPosition=right;points=[];portConstraint=eastwest;" vertex="1" parent="a6Y1GMjYXgnfRrDLQO_0-1">
          <mxGeometry y="26" width="190" height="8" as="geometry" />
        </mxCell>
        <mxCell id="a6Y1GMjYXgnfRrDLQO_0-7" value="+ Create(String): ElectricityBill" style="text;strokeColor=none;fillColor=none;align=left;verticalAlign=top;spacingLeft=4;spacingRight=4;overflow=hidden;rotatable=0;points=[[0,0.5],[1,0.5]];portConstraint=eastwest;" vertex="1" parent="a6Y1GMjYXgnfRrDLQO_0-1">
          <mxGeometry y="34" width="190" height="26" as="geometry" />
        </mxCell>
        <mxCell id="a6Y1GMjYXgnfRrDLQO_0-8" value="EB_INSTITUTIONAL" style="swimlane;fontStyle=1;align=center;verticalAlign=top;childLayout=stackLayout;horizontal=1;startSize=26;horizontalStack=0;resizeParent=1;resizeParentMax=0;resizeLast=0;collapsible=1;marginBottom=0;" vertex="1" parent="1">
          <mxGeometry x="460" y="310" width="160" height="112" as="geometry" />
        </mxCell>
        <mxCell id="xWV0HaJ0GoEhkkYxL2_B-5" value="+ PricePerKmh: Double" style="text;strokeColor=none;fillColor=none;align=left;verticalAlign=top;spacingLeft=4;spacingRight=4;overflow=hidden;rotatable=0;points=[[0,0.5],[1,0.5]];portConstraint=eastwest;" vertex="1" parent="a6Y1GMjYXgnfRrDLQO_0-8">
          <mxGeometry y="26" width="160" height="26" as="geometry" />
        </mxCell>
        <mxCell id="a6Y1GMjYXgnfRrDLQO_0-9" value="+ Type: String" style="text;strokeColor=none;fillColor=none;align=left;verticalAlign=top;spacingLeft=4;spacingRight=4;overflow=hidden;rotatable=0;points=[[0,0.5],[1,0.5]];portConstraint=eastwest;" vertex="1" parent="a6Y1GMjYXgnfRrDLQO_0-8">
          <mxGeometry y="52" width="160" height="26" as="geometry" />
        </mxCell>
        <mxCell id="a6Y1GMjYXgnfRrDLQO_0-10" value="" style="line;strokeWidth=1;fillColor=none;align=left;verticalAlign=middle;spacingTop=-1;spacingLeft=3;spacingRight=3;rotatable=0;labelPosition=right;points=[];portConstraint=eastwest;" vertex="1" parent="a6Y1GMjYXgnfRrDLQO_0-8">
          <mxGeometry y="78" width="160" height="8" as="geometry" />
        </mxCell>
        <mxCell id="a6Y1GMjYXgnfRrDLQO_0-11" value="+ Cost()" style="text;strokeColor=none;fillColor=none;align=left;verticalAlign=top;spacingLeft=4;spacingRight=4;overflow=hidden;rotatable=0;points=[[0,0.5],[1,0.5]];portConstraint=eastwest;" vertex="1" parent="a6Y1GMjYXgnfRrDLQO_0-8">
          <mxGeometry y="86" width="160" height="26" as="geometry" />
        </mxCell>
        <mxCell id="a6Y1GMjYXgnfRrDLQO_0-13" value="EB_COMMERICAL" style="swimlane;fontStyle=1;align=center;verticalAlign=top;childLayout=stackLayout;horizontal=1;startSize=26;horizontalStack=0;resizeParent=1;resizeParentMax=0;resizeLast=0;collapsible=1;marginBottom=0;" vertex="1" parent="1">
          <mxGeometry x="660" y="310" width="160" height="112" as="geometry" />
        </mxCell>
        <mxCell id="a6Y1GMjYXgnfRrDLQO_0-14" value="+ PricePerKmh: Double" style="text;strokeColor=none;fillColor=none;align=left;verticalAlign=top;spacingLeft=4;spacingRight=4;overflow=hidden;rotatable=0;points=[[0,0.5],[1,0.5]];portConstraint=eastwest;" vertex="1" parent="a6Y1GMjYXgnfRrDLQO_0-13">
          <mxGeometry y="26" width="160" height="26" as="geometry" />
        </mxCell>
        <mxCell id="xWV0HaJ0GoEhkkYxL2_B-6" value="+ Type: String" style="text;strokeColor=none;fillColor=none;align=left;verticalAlign=top;spacingLeft=4;spacingRight=4;overflow=hidden;rotatable=0;points=[[0,0.5],[1,0.5]];portConstraint=eastwest;" vertex="1" parent="a6Y1GMjYXgnfRrDLQO_0-13">
          <mxGeometry y="52" width="160" height="26" as="geometry" />
        </mxCell>
        <mxCell id="a6Y1GMjYXgnfRrDLQO_0-15" value="" style="line;strokeWidth=1;fillColor=none;align=left;verticalAlign=middle;spacingTop=-1;spacingLeft=3;spacingRight=3;rotatable=0;labelPosition=right;points=[];portConstraint=eastwest;" vertex="1" parent="a6Y1GMjYXgnfRrDLQO_0-13">
          <mxGeometry y="78" width="160" height="8" as="geometry" />
        </mxCell>
        <mxCell id="a6Y1GMjYXgnfRrDLQO_0-16" value="+ Cost()" style="text;strokeColor=none;fillColor=none;align=left;verticalAlign=top;spacingLeft=4;spacingRight=4;overflow=hidden;rotatable=0;points=[[0,0.5],[1,0.5]];portConstraint=eastwest;" vertex="1" parent="a6Y1GMjYXgnfRrDLQO_0-13">
          <mxGeometry y="86" width="160" height="26" as="geometry" />
        </mxCell>
        <mxCell id="a6Y1GMjYXgnfRrDLQO_0-17" value="ElectricityBill" style="swimlane;fontStyle=1;align=center;verticalAlign=top;childLayout=stackLayout;horizontal=1;startSize=26;horizontalStack=0;resizeParent=1;resizeParentMax=0;resizeLast=0;collapsible=1;marginBottom=0;" vertex="1" parent="1">
          <mxGeometry x="510" y="100" width="160" height="86" as="geometry" />
        </mxCell>
        <mxCell id="a6Y1GMjYXgnfRrDLQO_0-18" value="+ PricePerKmh: Double" style="text;strokeColor=none;fillColor=none;align=left;verticalAlign=top;spacingLeft=4;spacingRight=4;overflow=hidden;rotatable=0;points=[[0,0.5],[1,0.5]];portConstraint=eastwest;" vertex="1" parent="a6Y1GMjYXgnfRrDLQO_0-17">
          <mxGeometry y="26" width="160" height="26" as="geometry" />
        </mxCell>
        <mxCell id="a6Y1GMjYXgnfRrDLQO_0-19" value="" style="line;strokeWidth=1;fillColor=none;align=left;verticalAlign=middle;spacingTop=-1;spacingLeft=3;spacingRight=3;rotatable=0;labelPosition=right;points=[];portConstraint=eastwest;" vertex="1" parent="a6Y1GMjYXgnfRrDLQO_0-17">
          <mxGeometry y="52" width="160" height="8" as="geometry" />
        </mxCell>
        <mxCell id="a6Y1GMjYXgnfRrDLQO_0-20" value="+ Cost()" style="text;strokeColor=none;fillColor=none;align=left;verticalAlign=top;spacingLeft=4;spacingRight=4;overflow=hidden;rotatable=0;points=[[0,0.5],[1,0.5]];portConstraint=eastwest;" vertex="1" parent="a6Y1GMjYXgnfRrDLQO_0-17">
          <mxGeometry y="60" width="160" height="26" as="geometry" />
        </mxCell>
        <mxCell id="a6Y1GMjYXgnfRrDLQO_0-24" value="EB_DOMESTIC" style="swimlane;fontStyle=1;align=center;verticalAlign=top;childLayout=stackLayout;horizontal=1;startSize=26;horizontalStack=0;resizeParent=1;resizeParentMax=0;resizeLast=0;collapsible=1;marginBottom=0;" vertex="1" parent="1">
          <mxGeometry x="540" y="460" width="160" height="86" as="geometry" />
        </mxCell>
        <mxCell id="a6Y1GMjYXgnfRrDLQO_0-25" value="+ PricePerKmh: Double" style="text;strokeColor=none;fillColor=none;align=left;verticalAlign=top;spacingLeft=4;spacingRight=4;overflow=hidden;rotatable=0;points=[[0,0.5],[1,0.5]];portConstraint=eastwest;" vertex="1" parent="a6Y1GMjYXgnfRrDLQO_0-24">
          <mxGeometry y="26" width="160" height="26" as="geometry" />
        </mxCell>
        <mxCell id="a6Y1GMjYXgnfRrDLQO_0-26" value="" style="line;strokeWidth=1;fillColor=none;align=left;verticalAlign=middle;spacingTop=-1;spacingLeft=3;spacingRight=3;rotatable=0;labelPosition=right;points=[];portConstraint=eastwest;" vertex="1" parent="a6Y1GMjYXgnfRrDLQO_0-24">
          <mxGeometry y="52" width="160" height="8" as="geometry" />
        </mxCell>
        <mxCell id="a6Y1GMjYXgnfRrDLQO_0-27" value="+ Cost()" style="text;strokeColor=none;fillColor=none;align=left;verticalAlign=top;spacingLeft=4;spacingRight=4;overflow=hidden;rotatable=0;points=[[0,0.5],[1,0.5]];portConstraint=eastwest;" vertex="1" parent="a6Y1GMjYXgnfRrDLQO_0-24">
          <mxGeometry y="60" width="160" height="26" as="geometry" />
        </mxCell>
        <mxCell id="xWV0HaJ0GoEhkkYxL2_B-1" value="" style="endArrow=open;endFill=1;endSize=12;html=1;rounded=0;exitX=0.641;exitY=0.014;exitDx=0;exitDy=0;exitPerimeter=0;entryX=0.575;entryY=1.154;entryDx=0;entryDy=0;entryPerimeter=0;" edge="1" parent="1" source="a6Y1GMjYXgnfRrDLQO_0-24" target="a6Y1GMjYXgnfRrDLQO_0-20">
          <mxGeometry width="160" relative="1" as="geometry">
            <mxPoint x="550" y="480" as="sourcePoint" />
            <mxPoint x="710" y="480" as="targetPoint" />
          </mxGeometry>
        </mxCell>
        <mxCell id="xWV0HaJ0GoEhkkYxL2_B-2" value="" style="endArrow=open;endFill=1;endSize=12;html=1;rounded=0;exitX=0.5;exitY=0;exitDx=0;exitDy=0;entryX=0.275;entryY=1.081;entryDx=0;entryDy=0;entryPerimeter=0;" edge="1" parent="1" source="a6Y1GMjYXgnfRrDLQO_0-8" target="a6Y1GMjYXgnfRrDLQO_0-20">
          <mxGeometry width="160" relative="1" as="geometry">
            <mxPoint x="550" y="480" as="sourcePoint" />
            <mxPoint x="710" y="480" as="targetPoint" />
          </mxGeometry>
        </mxCell>
        <mxCell id="xWV0HaJ0GoEhkkYxL2_B-3" value="" style="endArrow=open;endFill=1;endSize=12;html=1;rounded=0;entryX=0.846;entryY=1.081;entryDx=0;entryDy=0;entryPerimeter=0;" edge="1" parent="1" source="a6Y1GMjYXgnfRrDLQO_0-13" target="a6Y1GMjYXgnfRrDLQO_0-20">
          <mxGeometry width="160" relative="1" as="geometry">
            <mxPoint x="550" y="480" as="sourcePoint" />
            <mxPoint x="710" y="480" as="targetPoint" />
          </mxGeometry>
        </mxCell>
        <mxCell id="xWV0HaJ0GoEhkkYxL2_B-11" value="" style="endArrow=open;endFill=1;endSize=12;html=1;rounded=0;exitX=1;exitY=0.5;exitDx=0;exitDy=0;exitPerimeter=0;entryX=-0.031;entryY=0.869;entryDx=0;entryDy=0;entryPerimeter=0;" edge="1" parent="1" source="a6Y1GMjYXgnfRrDLQO_0-3" target="a6Y1GMjYXgnfRrDLQO_0-18">
          <mxGeometry width="160" relative="1" as="geometry">
            <mxPoint x="550" y="360" as="sourcePoint" />
            <mxPoint x="710" y="360" as="targetPoint" />
          </mxGeometry>
        </mxCell>
        <mxCell id="xWV0HaJ0GoEhkkYxL2_B-12" value="Create" style="text;html=1;strokeColor=none;fillColor=none;align=center;verticalAlign=middle;whiteSpace=wrap;rounded=0;" vertex="1" parent="1">
          <mxGeometry x="365" y="120" width="60" height="30" as="geometry" />
        </mxCell>
      </root>
    </mxGraphModel>
  </diagram>
  <diagram id="rxMTK1frtP2G9oqftQQN" name="Page-2">
    <mxGraphModel dx="2076" dy="1078" grid="1" gridSize="10" guides="1" tooltips="1" connect="1" arrows="1" fold="1" page="1" pageScale="1" pageWidth="850" pageHeight="1100" math="0" shadow="0">
      <root>
        <mxCell id="pF8UHketGuUdF5dgDLUH-0" />
        <mxCell id="pF8UHketGuUdF5dgDLUH-1" parent="pF8UHketGuUdF5dgDLUH-0" />
      </root>
    </mxGraphModel>
  </diagram>
</mxfile>
